<svg xmlns="http://www.w3.org/2000/svg" xmlns:xlink="http://www.w3.org/1999/xlink" width="100" zoomAndPan="magnify" viewBox="0 0 75 74.999997" height="100" preserveAspectRatio="xMidYMid meet" version="1.0"><defs><clipPath id="5cd1884ab9"><path d="M 20 7.5 L 43 7.5 L 43 31 L 20 31 Z M 20 7.5 " clip-rule="nonzero"/></clipPath><clipPath id="4dd6c09484"><path d="M 42 26 L 71.753906 26 L 71.753906 58 L 42 58 Z M 42 26 " clip-rule="nonzero"/></clipPath><clipPath id="3f0420533d"><path d="M 3.503906 31 L 39 31 L 39 67.5 L 3.503906 67.5 Z M 3.503906 31 " clip-rule="nonzero"/></clipPath></defs><rect x="-7.5" width="90" fill="#ffffff" y="-7.5" height="89.999996" fill-opacity="1"/><rect x="-7.5" width="90" fill="#ffffff" y="-7.5" height="89.999996" fill-opacity="1"/><rect x="-7.5" width="90" fill="#ffffff" y="-7.5" height="89.999996" fill-opacity="1"/><g clip-path="url(#5cd1884ab9)"><path fill="#ffffff" d="M 42.558594 16.421875 C 42.570312 16.414062 42.585938 16.40625 42.597656 16.398438 C 42.816406 16.253906 42.742188 15.886719 42.457031 15.886719 C 41.542969 15.898438 40.613281 15.871094 39.699219 15.945312 C 39.476562 15.960938 39.25 15.976562 39.027344 15.988281 C 38.242188 16.011719 37.460938 16.023438 36.675781 16.0625 C 36.179688 16.085938 35.683594 16.121094 35.1875 16.152344 C 34.996094 16.164062 34.910156 16.328125 34.925781 16.476562 C 34.921875 16.613281 35.007812 16.75 35.1875 16.734375 C 36.101562 16.65625 37.007812 16.609375 37.925781 16.582031 C 38.328125 16.574219 38.730469 16.550781 39.132812 16.527344 C 39.714844 16.511719 40.296875 16.488281 40.878906 16.457031 C 40.988281 16.453125 41.09375 16.449219 41.199219 16.449219 C 41.238281 16.449219 41.273438 16.449219 41.3125 16.449219 C 41.375 16.449219 41.4375 16.449219 41.5 16.449219 C 41.285156 16.582031 41.066406 16.714844 40.839844 16.839844 C 40.617188 16.964844 40.402344 17.078125 40.171875 17.183594 C 39.921875 17.292969 39.652344 17.390625 39.414062 17.53125 C 39.121094 17.703125 38.839844 17.894531 38.542969 18.0625 C 38.292969 18.203125 38.027344 18.3125 37.769531 18.4375 C 37.707031 18.46875 37.644531 18.496094 37.582031 18.527344 C 37.574219 18.53125 37.574219 18.53125 37.570312 18.53125 C 37.414062 18.585938 37.261719 18.648438 37.105469 18.707031 C 36.871094 18.796875 36.632812 18.890625 36.390625 18.964844 C 36.078125 19.066406 35.722656 19.132812 35.433594 19.285156 C 35.121094 19.445312 34.820312 19.625 34.515625 19.792969 C 34.402344 19.855469 34.367188 19.984375 34.390625 20.101562 C 34.449219 20.429688 34.507812 20.753906 34.566406 21.078125 C 34.59375 21.234375 34.636719 21.386719 34.683594 21.535156 C 34.652344 21.5625 34.621094 21.59375 34.585938 21.621094 C 34.515625 21.683594 34.492188 21.800781 34.515625 21.886719 C 34.640625 22.324219 34.757812 22.761719 34.914062 23.1875 C 34.996094 23.414062 35.09375 23.636719 35.164062 23.867188 C 35.242188 24.144531 35.292969 24.433594 35.355469 24.710938 C 35.453125 25.121094 35.628906 25.511719 35.773438 25.902344 C 35.941406 26.363281 36.113281 26.808594 36.210938 27.289062 C 36.273438 27.585938 36.324219 27.882812 36.375 28.179688 C 36.117188 27.964844 35.859375 27.753906 35.605469 27.535156 C 35.285156 27.238281 34.964844 26.9375 34.640625 26.636719 C 34.308594 26.332031 34.046875 25.960938 33.738281 25.628906 C 33.378906 25.25 33.003906 24.894531 32.664062 24.5 C 32.339844 24.117188 32 23.757812 31.652344 23.402344 C 31.59375 23.328125 31.535156 23.253906 31.476562 23.179688 C 31.390625 23.070312 31.175781 23.074219 31.089844 23.179688 C 30.707031 23.636719 30.324219 24.09375 29.925781 24.539062 C 29.742188 24.746094 29.578125 24.945312 29.421875 25.171875 C 29.265625 25.402344 29.117188 25.636719 28.953125 25.859375 C 28.53125 26.324219 28.132812 26.808594 27.738281 27.296875 C 27.410156 27.703125 27.128906 28.140625 26.816406 28.554688 C 26.679688 28.734375 26.542969 28.914062 26.40625 29.09375 C 26.355469 29.160156 26.308594 29.222656 26.257812 29.289062 C 26.253906 29.292969 26.25 29.296875 26.246094 29.300781 C 26.230469 29.316406 26.222656 29.328125 26.207031 29.339844 C 26.261719 29.097656 26.316406 28.851562 26.363281 28.605469 C 26.410156 28.34375 26.460938 28.09375 26.539062 27.839844 C 26.628906 27.546875 26.722656 27.253906 26.808594 26.960938 C 27.128906 25.8125 27.371094 24.648438 27.742188 23.519531 C 27.96875 22.835938 28.207031 22.167969 28.460938 21.492188 C 28.5 21.386719 28.433594 21.238281 28.335938 21.183594 C 27.882812 20.945312 27.433594 20.699219 26.976562 20.46875 C 26.734375 20.347656 26.496094 20.207031 26.246094 20.105469 C 25.945312 19.984375 25.644531 19.867188 25.34375 19.75 C 25.300781 19.734375 25.261719 19.71875 25.222656 19.703125 C 25.21875 19.699219 25.214844 19.699219 25.210938 19.695312 C 25.074219 19.621094 24.933594 19.558594 24.796875 19.492188 C 24.582031 19.382812 24.367188 19.269531 24.148438 19.171875 C 23.632812 18.945312 23.117188 18.722656 22.609375 18.480469 C 22.363281 18.367188 22.128906 18.246094 21.871094 18.160156 C 21.859375 18.15625 21.84375 18.148438 21.832031 18.144531 C 21.832031 18.144531 21.835938 18.144531 21.835938 18.144531 C 21.886719 18.132812 21.953125 18.128906 21.996094 18.109375 C 21.996094 18.109375 21.996094 18.109375 21.996094 18.105469 C 22 18.105469 22.003906 18.105469 22.007812 18.105469 C 22.191406 18.082031 22.371094 18.0625 22.554688 18.039062 C 23.082031 17.972656 23.613281 17.898438 24.144531 17.867188 C 24.773438 17.832031 25.398438 17.808594 26.027344 17.765625 C 26.292969 17.75 26.550781 17.710938 26.8125 17.675781 C 26.992188 17.648438 27.167969 17.625 27.347656 17.601562 C 27.355469 17.597656 27.359375 17.597656 27.363281 17.597656 C 27.363281 17.597656 27.363281 17.597656 27.367188 17.597656 C 27.390625 17.597656 27.40625 17.597656 27.414062 17.601562 C 27.457031 17.597656 27.5 17.589844 27.539062 17.585938 C 28.214844 17.539062 28.878906 17.519531 29.558594 17.515625 C 29.671875 17.515625 29.800781 17.429688 29.824219 17.3125 C 29.945312 16.667969 30.054688 16.03125 30.132812 15.375 C 30.195312 14.8125 30.28125 14.234375 30.273438 13.671875 C 30.269531 13.460938 30.265625 13.25 30.261719 13.042969 C 30.257812 12.949219 30.257812 12.859375 30.253906 12.765625 C 30.253906 12.738281 30.257812 12.707031 30.253906 12.675781 C 30.300781 12.554688 30.320312 12.402344 30.351562 12.277344 C 30.402344 12.078125 30.453125 11.878906 30.503906 11.679688 C 30.582031 11.375 30.566406 11.042969 30.585938 10.730469 C 30.589844 10.644531 30.59375 10.558594 30.601562 10.472656 C 30.601562 10.453125 30.601562 10.433594 30.601562 10.414062 C 30.65625 10.296875 30.664062 10.125 30.691406 10 C 30.757812 9.675781 30.8125 9.347656 30.910156 9.03125 C 30.941406 8.925781 30.976562 8.820312 31.007812 8.714844 C 31.101562 9.015625 31.195312 9.320312 31.28125 9.621094 C 31.355469 9.882812 31.433594 10.117188 31.546875 10.363281 C 31.636719 10.550781 31.722656 10.738281 31.808594 10.925781 C 31.835938 10.984375 31.863281 11.046875 31.894531 11.105469 C 31.894531 11.109375 31.894531 11.113281 31.898438 11.125 C 31.917969 11.207031 31.945312 11.289062 31.96875 11.367188 C 32.027344 11.628906 32.097656 11.890625 32.171875 12.140625 C 32.253906 12.417969 32.390625 12.6875 32.503906 12.957031 C 32.625 13.257812 32.742188 13.5625 32.851562 13.871094 C 32.882812 13.964844 32.914062 14.0625 32.945312 14.15625 C 32.972656 14.242188 33 14.332031 33.027344 14.417969 C 33.117188 14.738281 33.1875 15.070312 33.308594 15.382812 C 33.386719 15.585938 33.472656 15.789062 33.5625 15.988281 C 33.605469 16.125 33.648438 16.257812 33.691406 16.394531 C 33.738281 16.550781 33.878906 16.601562 34.007812 16.582031 C 34.027344 16.578125 34.046875 16.578125 34.070312 16.570312 C 34.199219 16.539062 34.316406 16.371094 34.261719 16.234375 C 34.203125 16.105469 34.148438 15.972656 34.09375 15.84375 C 33.957031 15.40625 33.816406 14.972656 33.660156 14.539062 C 33.476562 14.03125 33.332031 13.507812 33.140625 13.003906 C 33.015625 12.679688 32.875 12.359375 32.753906 12.03125 C 32.671875 11.800781 32.605469 11.5625 32.535156 11.328125 C 32.523438 11.28125 32.511719 11.234375 32.5 11.1875 C 32.4375 10.925781 32.339844 10.695312 32.230469 10.445312 C 32.15625 10.265625 32.078125 10.085938 32 9.902344 C 31.996094 9.894531 31.992188 9.890625 31.992188 9.882812 C 31.988281 9.832031 31.960938 9.78125 31.949219 9.734375 C 31.855469 9.414062 31.777344 9.082031 31.660156 8.769531 C 31.5625 8.503906 31.453125 8.238281 31.347656 7.972656 C 31.324219 7.902344 31.304688 7.828125 31.28125 7.757812 C 31.238281 7.621094 31.128906 7.558594 31.015625 7.566406 C 30.898438 7.550781 30.777344 7.609375 30.730469 7.753906 C 30.703125 7.847656 30.675781 7.9375 30.644531 8.03125 C 30.5625 8.246094 30.480469 8.460938 30.394531 8.671875 C 30.304688 8.910156 30.277344 9.175781 30.234375 9.425781 C 30.183594 9.6875 30.136719 9.910156 30.042969 10.160156 C 29.945312 10.417969 29.84375 10.675781 29.753906 10.9375 C 29.644531 11.261719 29.53125 11.589844 29.4375 11.917969 C 29.363281 12.195312 29.316406 12.484375 29.261719 12.765625 C 29.15625 13.261719 29.042969 13.753906 28.914062 14.242188 C 28.832031 14.554688 28.769531 14.875 28.664062 15.179688 C 28.5625 15.460938 28.453125 15.738281 28.347656 16.015625 C 27.914062 16.125 27.484375 16.242188 27.042969 16.320312 C 26.480469 16.417969 25.925781 16.53125 25.367188 16.660156 C 24.925781 16.757812 24.480469 16.832031 24.035156 16.914062 C 23.722656 16.976562 23.410156 17.035156 23.097656 17.09375 C 22.886719 17.132812 22.695312 17.21875 22.492188 17.292969 C 22.050781 17.460938 21.609375 17.601562 21.160156 17.734375 C 21.027344 17.765625 20.890625 17.796875 20.757812 17.824219 C 20.476562 17.886719 20.515625 18.269531 20.757812 18.351562 C 20.78125 18.363281 20.808594 18.371094 20.835938 18.378906 C 21.578125 18.742188 22.320312 19.117188 23.089844 19.417969 C 23.339844 19.519531 23.589844 19.621094 23.839844 19.714844 C 23.871094 19.738281 23.914062 19.753906 23.945312 19.769531 C 24.074219 19.835938 24.199219 19.898438 24.328125 19.964844 C 24.746094 20.179688 25.152344 20.40625 25.558594 20.640625 C 25.910156 20.84375 26.28125 21.007812 26.652344 21.179688 C 26.617188 21.441406 26.578125 21.703125 26.542969 21.964844 C 26.503906 22.246094 26.421875 22.523438 26.355469 22.800781 C 26.226562 23.339844 26.136719 23.886719 26.050781 24.433594 C 25.941406 25.121094 25.851562 25.800781 25.773438 26.488281 C 25.714844 27.027344 25.6875 27.566406 25.621094 28.105469 C 25.578125 28.453125 25.519531 28.800781 25.496094 29.148438 C 25.472656 29.480469 25.46875 29.816406 25.457031 30.152344 C 25.449219 30.183594 25.441406 30.214844 25.433594 30.246094 C 25.382812 30.453125 25.632812 30.703125 25.835938 30.554688 C 26.101562 30.359375 26.363281 30.167969 26.625 29.972656 C 26.71875 29.902344 26.808594 29.84375 26.878906 29.75 C 26.980469 29.613281 27.078125 29.472656 27.175781 29.335938 C 27.507812 28.878906 27.878906 28.433594 28.1875 27.960938 C 28.375 27.679688 28.539062 27.371094 28.710938 27.078125 C 28.851562 26.839844 29.050781 26.625 29.222656 26.402344 C 29.277344 26.332031 29.332031 26.257812 29.386719 26.183594 C 29.492188 26.050781 29.59375 25.917969 29.695312 25.777344 C 29.8125 25.621094 29.925781 25.460938 30.042969 25.304688 C 30.0625 25.277344 30.152344 25.160156 30.058594 25.277344 C 30.089844 25.238281 30.117188 25.203125 30.144531 25.167969 C 30.515625 24.703125 30.894531 24.257812 31.285156 23.820312 C 31.515625 24.113281 31.742188 24.40625 31.996094 24.679688 C 32.382812 25.09375 32.777344 25.484375 33.1875 25.875 C 33.515625 26.191406 33.75 26.585938 34.066406 26.910156 C 34.425781 27.28125 34.832031 27.621094 35.234375 27.945312 C 35.265625 27.972656 35.296875 28 35.332031 28.027344 C 35.738281 28.40625 36.164062 28.753906 36.597656 29.105469 C 36.757812 29.234375 37.101562 29.175781 37.066406 28.914062 C 37.023438 28.574219 36.980469 28.238281 36.9375 27.898438 C 36.902344 27.621094 36.828125 27.359375 36.761719 27.085938 C 36.625 26.539062 36.539062 25.972656 36.390625 25.429688 C 36.292969 25.082031 36.164062 24.746094 36.0625 24.402344 C 35.984375 24.121094 35.933594 23.832031 35.875 23.546875 C 35.757812 23.027344 35.566406 22.527344 35.410156 22.015625 C 35.382812 21.917969 35.347656 21.820312 35.316406 21.722656 C 35.460938 21.601562 35.601562 21.484375 35.738281 21.355469 C 35.8125 21.304688 35.882812 21.253906 35.953125 21.203125 C 36.128906 21.082031 36.304688 20.957031 36.480469 20.835938 C 36.964844 20.496094 37.425781 20.113281 37.894531 19.746094 C 38.019531 19.648438 38.144531 19.550781 38.265625 19.453125 C 38.289062 19.445312 38.308594 19.425781 38.328125 19.414062 C 38.40625 19.363281 38.484375 19.316406 38.5625 19.265625 C 38.828125 19.097656 39.097656 18.945312 39.339844 18.746094 C 39.582031 18.550781 39.820312 18.351562 40.066406 18.160156 C 40.324219 17.957031 40.578125 17.738281 40.847656 17.554688 C 40.835938 17.566406 40.9375 17.503906 40.96875 17.488281 C 41.066406 17.433594 41.167969 17.375 41.265625 17.320312 C 41.429688 17.226562 41.601562 17.140625 41.757812 17.039062 C 42.03125 16.859375 42.285156 16.636719 42.542969 16.4375 C 42.550781 16.433594 42.554688 16.425781 42.558594 16.421875 Z M 30.253906 12.675781 C 30.25 12.628906 30.265625 12.628906 30.253906 12.675781 Z M 27.425781 16.804688 C 27.667969 16.761719 27.90625 16.691406 28.148438 16.628906 C 28.296875 16.589844 28.449219 16.558594 28.597656 16.515625 C 28.75 16.46875 28.800781 16.355469 28.851562 16.222656 C 28.96875 15.917969 29.097656 15.613281 29.199219 15.300781 C 29.289062 15.039062 29.34375 14.761719 29.417969 14.492188 C 29.523438 14.082031 29.625 13.667969 29.714844 13.253906 C 29.714844 13.273438 29.714844 13.289062 29.714844 13.308594 C 29.726562 13.882812 29.6875 14.457031 29.621094 15.03125 C 29.59375 15.265625 29.566406 15.496094 29.542969 15.730469 C 29.53125 15.824219 29.519531 15.917969 29.507812 16.015625 C 29.507812 16.023438 29.507812 16.027344 29.507812 16.03125 C 29.507812 16.035156 29.503906 16.039062 29.503906 16.042969 C 29.4375 16.351562 29.382812 16.660156 29.328125 16.96875 C 28.820312 16.976562 28.3125 16.984375 27.800781 17.019531 C 27.539062 17.039062 27.28125 17.0625 27.019531 17.097656 C 26.820312 17.125 26.617188 17.15625 26.417969 17.183594 C 26.363281 17.191406 26.308594 17.199219 26.253906 17.207031 C 26.246094 17.207031 26.234375 17.207031 26.214844 17.207031 C 25.832031 17.226562 25.449219 17.246094 25.066406 17.269531 C 25.851562 17.109375 26.636719 16.945312 27.425781 16.804688 Z M 26.414062 25.652344 C 26.414062 25.648438 26.414062 25.648438 26.414062 25.648438 C 26.425781 25.574219 26.4375 25.503906 26.449219 25.429688 C 26.480469 25.214844 26.515625 25 26.546875 24.785156 C 26.628906 24.257812 26.699219 23.722656 26.824219 23.207031 C 26.902344 22.867188 27.007812 22.53125 27.0625 22.1875 C 27.117188 21.859375 27.15625 21.53125 27.199219 21.203125 C 27.417969 21.316406 27.636719 21.433594 27.855469 21.550781 C 27.472656 22.574219 27.089844 23.609375 26.824219 24.667969 C 26.664062 25.320312 26.503906 25.964844 26.332031 26.613281 C 26.320312 26.652344 26.308594 26.691406 26.296875 26.734375 C 26.335938 26.371094 26.382812 26.011719 26.414062 25.652344 Z M 37.777344 19.144531 C 37.53125 19.335938 37.289062 19.53125 37.046875 19.71875 C 36.886719 19.839844 36.730469 19.960938 36.574219 20.082031 C 36.5 20.140625 36.421875 20.199219 36.347656 20.257812 C 36.324219 20.277344 36.296875 20.296875 36.273438 20.316406 C 36.226562 20.351562 36.253906 20.316406 36.296875 20.296875 C 36.132812 20.371094 35.976562 20.519531 35.832031 20.625 C 35.6875 20.722656 35.539062 20.820312 35.398438 20.929688 C 35.3125 20.996094 35.226562 21.066406 35.140625 21.140625 C 35.128906 21.101562 35.121094 21.066406 35.113281 21.027344 C 35.050781 20.746094 35.003906 20.460938 34.957031 20.175781 C 35.179688 20.050781 35.402344 19.925781 35.628906 19.800781 C 35.648438 19.792969 35.667969 19.78125 35.691406 19.769531 C 35.671875 19.777344 35.671875 19.765625 35.699219 19.757812 C 35.703125 19.757812 35.710938 19.757812 35.714844 19.753906 C 35.722656 19.75 35.730469 19.746094 35.738281 19.742188 C 35.730469 19.746094 35.722656 19.75 35.71875 19.753906 C 35.742188 19.746094 35.769531 19.738281 35.792969 19.730469 C 35.96875 19.671875 36.148438 19.617188 36.324219 19.5625 C 36.835938 19.398438 37.363281 19.230469 37.851562 19.003906 C 37.984375 18.941406 38.117188 18.878906 38.253906 18.816406 C 38.089844 18.917969 37.929688 19.023438 37.777344 19.144531 Z M 37.777344 19.144531 " fill-opacity="1" fill-rule="nonzero"/></g><g clip-path="url(#4dd6c09484)"><path fill="#ffffff" d="M 71.484375 41.636719 C 71.125 41.5625 70.761719 41.496094 70.40625 41.40625 C 70.199219 41.351562 69.992188 41.269531 69.789062 41.1875 C 69.757812 41.132812 69.707031 41.082031 69.628906 41.058594 C 69.152344 40.917969 68.675781 40.761719 68.191406 40.648438 C 67.597656 40.511719 67.019531 40.363281 66.4375 40.191406 C 65.976562 40.054688 65.488281 40.039062 65.027344 39.917969 C 64.703125 39.835938 64.386719 39.71875 64.070312 39.621094 C 63.859375 39.554688 63.648438 39.550781 63.429688 39.542969 C 62.835938 39.402344 62.230469 39.289062 61.636719 39.152344 C 61.4375 39.109375 61.308594 39.261719 61.296875 39.417969 C 61.246094 39.554688 61.289062 39.722656 61.472656 39.765625 C 61.984375 39.886719 62.480469 40.039062 63.007812 40.066406 C 63.109375 40.070312 63.210938 40.078125 63.3125 40.082031 C 63.382812 40.097656 63.457031 40.117188 63.53125 40.132812 C 64.144531 40.261719 64.75 40.476562 65.355469 40.640625 C 65.953125 40.804688 66.558594 40.925781 67.164062 41.070312 C 67.480469 41.148438 67.800781 41.234375 68.121094 41.304688 C 68.265625 41.335938 68.410156 41.359375 68.554688 41.390625 C 68.503906 41.40625 68.453125 41.425781 68.402344 41.441406 C 68.074219 41.5625 67.757812 41.714844 67.4375 41.855469 C 67.382812 41.878906 67.324219 41.902344 67.265625 41.929688 C 67.246094 41.929688 67.222656 41.945312 67.203125 41.949219 C 66.988281 42.015625 66.777344 42.089844 66.5625 42.160156 C 66.261719 42.257812 65.96875 42.363281 65.671875 42.476562 C 65.378906 42.589844 65.082031 42.703125 64.789062 42.824219 C 64.484375 42.949219 64.183594 43.097656 63.859375 43.171875 C 63.53125 43.246094 63.175781 43.292969 62.863281 43.40625 C 62.511719 43.535156 62.179688 43.707031 61.828125 43.835938 C 61.46875 43.964844 61.089844 44.050781 60.730469 44.179688 C 60.484375 44.269531 60.246094 44.371094 60.003906 44.472656 C 59.882812 44.511719 59.761719 44.550781 59.644531 44.585938 C 59.523438 44.621094 59.449219 44.726562 59.441406 44.847656 C 59.433594 45.070312 59.421875 45.292969 59.414062 45.511719 C 59.40625 45.703125 59.375 45.910156 59.402344 46.101562 C 59.4375 46.34375 59.480469 46.585938 59.519531 46.828125 C 59.539062 46.941406 59.558594 47.054688 59.574219 47.164062 C 59.582031 47.195312 59.582031 47.222656 59.589844 47.253906 C 59.585938 47.234375 59.582031 47.21875 59.582031 47.210938 C 59.582031 47.21875 59.582031 47.226562 59.582031 47.242188 C 59.550781 48.074219 59.636719 48.902344 59.664062 49.734375 C 59.679688 50.164062 59.691406 50.59375 59.726562 51.023438 C 59.761719 51.453125 59.796875 51.871094 59.796875 52.300781 C 59.792969 53.164062 59.847656 54.027344 59.882812 54.890625 C 59.890625 54.984375 59.894531 55.082031 59.902344 55.179688 C 59.472656 54.550781 59.027344 53.9375 58.574219 53.324219 C 58.074219 52.652344 57.628906 51.941406 57.160156 51.246094 C 56.933594 50.914062 56.65625 50.59375 56.480469 50.234375 C 56.28125 49.828125 56.097656 49.421875 55.855469 49.039062 C 55.714844 48.824219 55.5625 48.609375 55.4375 48.386719 C 55.339844 48.203125 55.269531 48 55.183594 47.808594 C 55 47.382812 54.804688 46.96875 54.605469 46.546875 C 54.59375 46.523438 54.582031 46.5 54.570312 46.476562 C 54.550781 46.429688 54.527344 46.382812 54.507812 46.332031 C 54.449219 46.199219 54.246094 46.164062 54.132812 46.234375 C 53.398438 46.671875 52.621094 47.074219 51.9375 47.578125 C 51.546875 47.867188 51.171875 48.152344 50.800781 48.460938 C 50.691406 48.550781 50.582031 48.644531 50.472656 48.734375 C 50.453125 48.75 50.433594 48.765625 50.414062 48.78125 C 50.410156 48.78125 50.410156 48.785156 50.40625 48.785156 C 50.167969 48.929688 49.941406 49.089844 49.710938 49.242188 C 49.332031 49.492188 48.992188 49.800781 48.644531 50.09375 C 48.640625 50.097656 48.632812 50.101562 48.625 50.109375 C 48.609375 50.121094 48.585938 50.140625 48.578125 50.148438 C 48.46875 50.230469 48.363281 50.308594 48.253906 50.390625 C 48.066406 50.53125 47.875 50.671875 47.6875 50.816406 C 47.492188 50.964844 47.304688 51.117188 47.109375 51.265625 C 47.019531 51.339844 46.925781 51.410156 46.835938 51.484375 C 46.808594 51.503906 46.777344 51.527344 46.75 51.546875 C 46.386719 51.820312 46.023438 52.09375 45.65625 52.363281 C 45.515625 52.46875 45.378906 52.578125 45.238281 52.679688 C 45.242188 52.667969 45.25 52.652344 45.253906 52.640625 C 45.433594 52.265625 45.640625 51.894531 45.78125 51.5 C 45.875 51.238281 45.96875 50.972656 46.0625 50.710938 C 46.074219 50.675781 46.121094 50.546875 46.105469 50.585938 C 46.132812 50.519531 46.164062 50.453125 46.191406 50.386719 C 46.527344 49.613281 46.863281 48.835938 47.152344 48.042969 C 47.257812 47.761719 47.359375 47.476562 47.464844 47.195312 C 47.664062 46.957031 47.878906 46.726562 48.023438 46.457031 C 48.230469 46.0625 48.425781 45.660156 48.679688 45.289062 C 48.945312 44.90625 49.207031 44.519531 49.472656 44.136719 C 49.742188 43.742188 49.972656 43.34375 50.207031 42.929688 C 50.242188 42.863281 50.28125 42.796875 50.320312 42.730469 C 50.390625 42.601562 50.347656 42.433594 50.21875 42.355469 C 49.703125 42.039062 49.195312 41.726562 48.703125 41.375 C 48.253906 41.058594 47.792969 40.753906 47.335938 40.453125 C 46.792969 40.097656 46.25 39.742188 45.714844 39.378906 C 45.503906 39.234375 45.300781 39.085938 45.09375 38.929688 C 44.984375 38.847656 44.871094 38.761719 44.757812 38.675781 C 45.101562 38.71875 45.453125 38.707031 45.796875 38.734375 C 46.164062 38.761719 46.527344 38.816406 46.894531 38.859375 C 47.625 38.945312 48.355469 39.027344 49.089844 39.101562 C 49.820312 39.175781 50.554688 39.21875 51.285156 39.296875 C 51.675781 39.335938 52.082031 39.304688 52.476562 39.308594 C 52.859375 39.316406 53.246094 39.335938 53.628906 39.347656 C 53.726562 39.351562 53.816406 39.292969 53.863281 39.210938 C 54.082031 38.863281 54.320312 38.519531 54.511719 38.152344 C 54.722656 37.75 54.925781 37.34375 55.136719 36.9375 C 55.359375 36.507812 55.582031 36.089844 55.832031 35.675781 C 55.949219 35.476562 56.09375 35.285156 56.183594 35.070312 C 56.289062 34.832031 56.386719 34.585938 56.492188 34.34375 C 56.53125 34.246094 56.574219 34.148438 56.613281 34.050781 C 56.617188 34.046875 56.617188 34.046875 56.617188 34.046875 C 56.640625 34.011719 56.65625 33.96875 56.675781 33.933594 C 56.8125 33.664062 56.953125 33.394531 57.089844 33.125 C 57.285156 32.746094 57.503906 32.382812 57.6875 32 C 57.789062 31.785156 57.871094 31.558594 57.960938 31.339844 C 58.015625 31.203125 58.070312 31.066406 58.128906 30.933594 C 58.132812 30.921875 58.136719 30.914062 58.140625 30.90625 C 58.144531 30.898438 58.15625 30.882812 58.167969 30.863281 C 58.367188 30.554688 58.554688 30.238281 58.734375 29.921875 C 58.785156 30.476562 58.855469 31.027344 58.949219 31.585938 C 58.949219 31.589844 58.949219 31.589844 58.949219 31.59375 C 58.949219 31.597656 58.949219 31.601562 58.949219 31.609375 C 58.949219 31.71875 58.960938 31.828125 58.964844 31.9375 C 58.976562 32.179688 58.984375 32.421875 58.996094 32.664062 C 59.015625 33.039062 59.046875 33.417969 59.070312 33.792969 C 59.121094 34.542969 59.1875 35.292969 59.261719 36.042969 C 59.300781 36.449219 59.304688 36.863281 59.335938 37.273438 C 59.363281 37.667969 59.421875 38.0625 59.46875 38.457031 C 59.484375 38.601562 59.582031 38.726562 59.742188 38.730469 C 59.878906 38.730469 60.03125 38.601562 60.015625 38.457031 C 59.972656 38.074219 59.917969 37.695312 59.886719 37.3125 C 59.851562 36.933594 59.851562 36.546875 59.820312 36.164062 C 59.761719 35.402344 59.679688 34.644531 59.625 33.882812 C 59.570312 33.125 59.546875 32.367188 59.5 31.609375 C 59.472656 31.214844 59.382812 30.820312 59.316406 30.429688 C 59.316406 30.421875 59.316406 30.414062 59.3125 30.40625 C 59.3125 30.40625 59.3125 30.40625 59.3125 30.402344 C 59.316406 30.300781 59.300781 30.199219 59.292969 30.097656 C 59.273438 29.851562 59.253906 29.601562 59.238281 29.355469 C 59.230469 29.242188 59.222656 29.125 59.214844 29.011719 C 59.320312 28.796875 59.421875 28.582031 59.515625 28.359375 C 59.578125 28.214844 59.636719 28.070312 59.699219 27.925781 C 59.714844 27.886719 59.734375 27.847656 59.75 27.804688 C 59.75 27.804688 59.75 27.808594 59.75 27.804688 C 59.769531 27.773438 59.789062 27.738281 59.808594 27.707031 C 59.8125 27.769531 59.816406 27.835938 59.816406 27.902344 C 59.820312 28.199219 59.824219 28.496094 59.828125 28.792969 C 59.832031 28.96875 59.871094 29.144531 59.902344 29.320312 C 59.949219 29.558594 59.964844 29.820312 60.035156 30.054688 C 60.035156 30.109375 60.042969 30.167969 60.042969 30.222656 C 60.050781 30.375 60.058594 30.527344 60.066406 30.679688 C 60.089844 31.148438 60.128906 31.609375 60.171875 32.078125 C 60.210938 32.511719 60.160156 32.949219 60.148438 33.382812 C 60.136719 33.777344 60.140625 34.175781 60.15625 34.570312 C 60.1875 35.449219 60.324219 36.324219 60.347656 37.203125 C 60.359375 37.679688 60.355469 38.128906 60.316406 38.605469 C 60.28125 39.070312 60.28125 39.527344 60.285156 39.996094 C 60.285156 40.074219 60.285156 40.15625 60.289062 40.234375 C 60.289062 40.585938 60.839844 40.585938 60.835938 40.234375 C 60.832031 39.832031 60.804688 39.421875 60.835938 39.019531 C 60.871094 38.570312 60.921875 38.121094 60.910156 37.671875 C 60.898438 37.203125 60.878906 36.746094 60.832031 36.277344 C 60.78125 35.808594 60.75 35.339844 60.722656 34.863281 C 60.695312 34.417969 60.699219 33.96875 60.695312 33.523438 C 60.691406 33.109375 60.75 32.695312 60.738281 32.285156 C 60.726562 31.882812 60.65625 31.484375 60.636719 31.082031 C 60.609375 30.621094 60.613281 30.160156 60.53125 29.707031 C 60.480469 29.429688 60.433594 29.152344 60.378906 28.878906 C 60.378906 28.878906 60.378906 28.882812 60.378906 28.886719 C 60.378906 28.882812 60.378906 28.878906 60.378906 28.875 C 60.378906 28.871094 60.378906 28.867188 60.378906 28.867188 C 60.367188 28.808594 60.378906 28.828125 60.378906 28.855469 C 60.378906 28.832031 60.378906 28.808594 60.378906 28.792969 C 60.375 28.648438 60.375 28.503906 60.371094 28.359375 C 60.367188 27.882812 60.332031 27.425781 60.28125 26.953125 C 60.273438 26.871094 60.265625 26.785156 60.257812 26.703125 C 60.230469 26.460938 59.875 26.296875 59.746094 26.566406 C 59.558594 26.953125 59.359375 27.332031 59.191406 27.730469 C 59.179688 27.761719 59.164062 27.792969 59.152344 27.824219 C 59.136719 27.519531 59.125 27.21875 59.105469 26.917969 C 59.09375 26.675781 58.714844 26.515625 58.59375 26.78125 C 58.269531 27.496094 57.925781 28.199219 57.589844 28.910156 C 57.414062 29.28125 57.25 29.660156 57.0625 30.027344 C 56.867188 30.410156 56.667969 30.785156 56.511719 31.183594 C 56.417969 31.429688 56.320312 31.675781 56.230469 31.921875 C 56.234375 31.917969 56.234375 31.910156 56.238281 31.90625 C 56.234375 31.917969 56.226562 31.929688 56.222656 31.941406 C 56.222656 31.9375 56.226562 31.933594 56.226562 31.929688 C 56.226562 31.925781 56.230469 31.925781 56.230469 31.921875 C 56.191406 31.992188 56.210938 31.972656 56.222656 31.941406 C 56.21875 31.953125 56.210938 31.964844 56.207031 31.976562 C 56.152344 32.089844 56.101562 32.207031 56.046875 32.320312 C 55.863281 32.71875 55.675781 33.109375 55.472656 33.496094 C 55.085938 34.238281 54.738281 35 54.386719 35.757812 C 54.3125 35.917969 54.238281 36.078125 54.160156 36.238281 C 54.089844 36.386719 54.019531 36.53125 53.949219 36.679688 C 53.917969 36.746094 53.859375 36.832031 53.835938 36.90625 C 53.851562 36.871094 53.878906 36.871094 53.832031 36.925781 C 53.832031 36.929688 53.832031 36.929688 53.832031 36.929688 C 53.832031 36.929688 53.832031 36.929688 53.832031 36.925781 C 53.796875 36.96875 53.761719 37.011719 53.726562 37.054688 C 53.628906 37.175781 53.535156 37.296875 53.4375 37.417969 C 53.3125 37.574219 53.1875 37.730469 53.058594 37.886719 C 52.722656 37.910156 52.382812 37.929688 52.046875 37.953125 C 51.710938 37.972656 51.367188 37.929688 51.035156 37.917969 C 50.710938 37.90625 50.394531 37.851562 50.074219 37.8125 C 49.972656 37.796875 49.875 37.785156 49.777344 37.773438 C 49.761719 37.769531 49.746094 37.769531 49.730469 37.765625 C 49.730469 37.765625 49.730469 37.765625 49.726562 37.765625 C 49.558594 37.699219 49.351562 37.6875 49.175781 37.652344 C 48.53125 37.527344 47.867188 37.402344 47.210938 37.371094 C 46.871094 37.351562 46.527344 37.347656 46.1875 37.316406 C 45.976562 37.296875 45.769531 37.273438 45.558594 37.25 C 45.449219 37.238281 45.34375 37.226562 45.238281 37.214844 C 45.207031 37.210938 45.175781 37.207031 45.144531 37.203125 C 45.148438 37.203125 45.148438 37.203125 45.148438 37.207031 C 45.148438 37.203125 45.144531 37.203125 45.144531 37.203125 C 45.140625 37.203125 45.136719 37.203125 45.132812 37.203125 C 45.066406 37.195312 45.089844 37.1875 45.117188 37.191406 C 45.070312 37.175781 44.992188 37.171875 44.953125 37.164062 C 44.820312 37.136719 44.691406 37.109375 44.5625 37.082031 C 44.382812 37.042969 44.199219 37 44.015625 36.96875 C 43.617188 36.902344 43.199219 36.910156 42.800781 36.886719 C 42.5625 36.871094 42.4375 37.195312 42.605469 37.351562 C 42.789062 37.527344 42.972656 37.699219 43.152344 37.875 C 42.914062 37.855469 42.679688 37.847656 42.445312 37.828125 C 42.144531 37.804688 42.113281 38.195312 42.308594 38.335938 C 42.542969 38.511719 42.777344 38.683594 43.007812 38.859375 C 43.066406 38.902344 43.125 38.945312 43.183594 38.988281 C 43.195312 38.996094 43.207031 39.007812 43.21875 39.019531 C 43.214844 39.011719 43.210938 39.007812 43.207031 39.003906 C 43.269531 39.085938 43.375 39.15625 43.449219 39.226562 C 43.667969 39.425781 43.875 39.640625 44.109375 39.820312 C 44.339844 40.003906 44.574219 40.179688 44.808594 40.359375 C 44.96875 40.480469 45.128906 40.589844 45.300781 40.695312 C 45.460938 40.796875 45.625 40.898438 45.785156 41 C 45.835938 41.03125 45.886719 41.066406 45.941406 41.097656 C 45.964844 41.113281 45.976562 41.117188 45.980469 41.121094 C 46.390625 41.449219 46.804688 41.765625 47.203125 42.109375 C 47.621094 42.472656 48.027344 42.847656 48.433594 43.222656 C 48.359375 43.539062 48.296875 43.863281 48.195312 44.167969 C 48.113281 44.398438 48.003906 44.625 47.910156 44.851562 C 47.867188 44.949219 47.828125 45.042969 47.789062 45.136719 C 47.789062 45.136719 47.789062 45.136719 47.789062 45.140625 C 47.789062 45.140625 47.785156 45.144531 47.785156 45.148438 C 47.777344 45.164062 47.769531 45.175781 47.765625 45.183594 C 47.761719 45.191406 47.757812 45.199219 47.753906 45.203125 C 47.558594 45.566406 47.335938 45.9375 47.195312 46.324219 C 47.121094 46.53125 47.046875 46.734375 46.972656 46.941406 C 46.703125 47.292969 46.539062 47.699219 46.328125 48.089844 C 46.144531 48.433594 45.863281 48.730469 45.65625 49.0625 C 45.191406 49.800781 44.808594 50.585938 44.355469 51.332031 C 44.230469 51.539062 44.089844 51.742188 43.976562 51.957031 C 43.871094 52.167969 43.792969 52.394531 43.703125 52.609375 C 43.648438 52.738281 43.597656 52.863281 43.542969 52.992188 C 43.535156 53.007812 43.519531 53.03125 43.515625 53.042969 C 43.511719 53.046875 43.507812 53.050781 43.503906 53.054688 C 43.355469 53.300781 43.21875 53.554688 43.074219 53.804688 C 43.039062 53.867188 43 53.929688 42.964844 53.992188 C 42.824219 54.234375 43.101562 54.492188 43.339844 54.367188 C 43.566406 54.246094 43.796875 54.128906 44.027344 54.011719 C 43.953125 54.171875 43.878906 54.335938 43.804688 54.496094 C 43.683594 54.753906 43.925781 54.984375 44.179688 54.871094 C 44.945312 54.535156 45.71875 54.207031 46.382812 53.695312 C 47.113281 53.136719 47.875 52.632812 48.601562 52.074219 C 48.953125 51.808594 49.289062 51.519531 49.628906 51.234375 C 49.632812 51.230469 49.640625 51.222656 49.648438 51.21875 C 49.644531 51.222656 49.636719 51.226562 49.625 51.234375 C 49.648438 51.21875 49.671875 51.199219 49.695312 51.183594 C 49.808594 51.105469 49.917969 51.027344 50.027344 50.949219 C 50.210938 50.820312 50.414062 50.699219 50.582031 50.554688 C 50.886719 50.285156 51.140625 49.964844 51.441406 49.699219 C 51.769531 49.40625 52.097656 49.117188 52.417969 48.816406 C 52.753906 48.503906 53.085938 48.1875 53.410156 47.863281 C 53.691406 47.582031 53.945312 47.289062 54.199219 46.988281 C 54.234375 47.070312 54.269531 47.152344 54.308594 47.234375 C 54.355469 47.347656 54.40625 47.457031 54.453125 47.570312 C 54.464844 47.59375 54.472656 47.613281 54.484375 47.636719 C 54.484375 47.640625 54.484375 47.644531 54.488281 47.652344 C 54.613281 48.050781 54.742188 48.46875 54.921875 48.847656 C 55.277344 49.59375 55.683594 50.324219 56.011719 51.082031 C 56.355469 51.871094 56.714844 52.644531 57.175781 53.378906 C 57.292969 53.566406 57.429688 53.753906 57.535156 53.953125 C 57.628906 54.128906 57.695312 54.324219 57.773438 54.507812 C 57.847656 54.679688 57.910156 54.867188 58.003906 55.035156 C 58.117188 55.238281 58.269531 55.429688 58.398438 55.625 C 58.671875 56.027344 58.9375 56.4375 59.207031 56.847656 C 59.453125 57.222656 59.789062 57.550781 60.085938 57.886719 C 60.246094 58.070312 60.554688 57.921875 60.554688 57.695312 C 60.554688 57.441406 60.558594 57.1875 60.558594 56.933594 C 60.5625 56.941406 60.570312 56.949219 60.574219 56.953125 C 60.582031 56.964844 60.589844 56.972656 60.597656 56.980469 C 60.597656 56.980469 60.605469 56.988281 60.625 57.015625 C 60.625 57.015625 60.628906 57.015625 60.628906 57.019531 C 60.800781 57.242188 60.972656 57.464844 61.144531 57.691406 C 61.1875 57.75 61.234375 57.808594 61.277344 57.867188 C 61.429688 58.0625 61.796875 58.027344 61.789062 57.730469 C 61.777344 57.320312 61.792969 56.902344 61.738281 56.5 C 61.703125 56.230469 61.664062 55.964844 61.628906 55.695312 C 61.621094 55.644531 61.613281 55.59375 61.609375 55.542969 C 61.601562 55.511719 61.609375 55.484375 61.609375 55.488281 C 61.609375 55.417969 61.597656 55.34375 61.59375 55.277344 C 61.566406 54.808594 61.53125 54.367188 61.449219 53.90625 C 61.367188 53.464844 61.296875 53.019531 61.226562 52.578125 C 61.164062 52.148438 61.078125 51.726562 60.996094 51.300781 C 60.992188 51.28125 60.992188 51.253906 60.984375 51.230469 C 60.988281 51.257812 60.988281 51.289062 60.984375 51.230469 C 60.984375 51.226562 60.984375 51.222656 60.984375 51.21875 C 60.980469 51.214844 60.980469 51.210938 60.980469 51.207031 C 60.980469 51.207031 60.980469 51.210938 60.980469 51.214844 C 60.972656 51.089844 60.957031 50.96875 60.945312 50.847656 C 60.921875 50.628906 60.902344 50.410156 60.875 50.195312 C 60.832031 49.792969 60.808594 49.378906 60.726562 48.984375 C 60.640625 48.570312 60.535156 48.15625 60.445312 47.742188 C 60.332031 47.230469 60.226562 46.722656 60.136719 46.207031 C 60.117188 46.113281 60.113281 46.003906 60.085938 45.90625 C 60.089844 45.925781 60.085938 45.921875 60.082031 45.890625 C 60.078125 45.882812 60.078125 45.875 60.074219 45.867188 C 60.078125 45.875 60.078125 45.882812 60.082031 45.886719 C 60.082031 45.882812 60.082031 45.878906 60.078125 45.871094 C 60.078125 45.808594 60.074219 45.742188 60.070312 45.679688 C 60.058594 45.46875 60.046875 45.261719 60.035156 45.050781 C 60.070312 45.035156 60.105469 45.019531 60.144531 45.003906 C 60.382812 44.929688 60.625 44.851562 60.867188 44.804688 C 61.238281 44.734375 61.621094 44.707031 61.996094 44.648438 C 62.78125 44.535156 63.5625 44.410156 64.324219 44.183594 C 64.710938 44.066406 65.097656 43.949219 65.492188 43.855469 C 65.628906 43.820312 65.765625 43.789062 65.898438 43.753906 C 65.984375 43.734375 66.121094 43.726562 66.195312 43.683594 C 66.21875 43.679688 66.238281 43.675781 66.261719 43.675781 C 66.398438 43.660156 66.53125 43.644531 66.667969 43.628906 C 66.878906 43.605469 67.101562 43.601562 67.308594 43.554688 C 67.5 43.511719 67.695312 43.425781 67.882812 43.363281 C 68.273438 43.230469 68.652344 43.132812 69.050781 43.039062 C 69.226562 43 69.394531 42.964844 69.558594 42.894531 C 69.824219 42.777344 70.089844 42.65625 70.355469 42.539062 C 70.382812 42.527344 70.414062 42.511719 70.445312 42.5 C 70.449219 42.496094 70.449219 42.496094 70.453125 42.496094 C 70.566406 42.472656 70.679688 42.421875 70.792969 42.386719 C 71.023438 42.3125 71.253906 42.238281 71.484375 42.164062 C 71.726562 42.085938 71.761719 41.699219 71.484375 41.636719 Z M 43.761719 37.492188 C 43.800781 37.496094 43.84375 37.5 43.882812 37.5 C 43.878906 37.5 43.875 37.496094 43.871094 37.496094 C 43.875 37.496094 43.878906 37.5 43.886719 37.5 C 43.945312 37.503906 43.933594 37.515625 43.90625 37.507812 C 43.957031 37.523438 44.027344 37.527344 44.066406 37.535156 C 44.195312 37.5625 44.328125 37.589844 44.457031 37.617188 C 44.636719 37.65625 44.820312 37.703125 45.003906 37.734375 C 45.785156 37.863281 46.574219 37.859375 47.359375 37.921875 C 47.738281 37.953125 48.117188 38.023438 48.492188 38.074219 C 48.546875 38.078125 48.519531 38.078125 48.488281 38.074219 C 48.503906 38.078125 48.519531 38.078125 48.535156 38.082031 C 48.640625 38.105469 48.75 38.125 48.859375 38.148438 C 49.09375 38.195312 49.324219 38.246094 49.558594 38.285156 C 50.316406 38.425781 51.082031 38.464844 51.851562 38.496094 C 52.230469 38.511719 52.617188 38.460938 53 38.4375 C 53.164062 38.425781 53.3125 38.429688 53.429688 38.292969 C 53.585938 38.117188 53.726562 37.925781 53.875 37.742188 C 54 37.585938 54.128906 37.429688 54.253906 37.273438 C 54.355469 37.140625 54.414062 36.972656 54.484375 36.824219 C 54.648438 36.484375 54.8125 36.140625 54.96875 35.796875 C 55.289062 35.105469 55.613281 34.414062 55.964844 33.738281 C 56.320312 33.050781 56.648438 32.351562 56.929688 31.628906 C 57 31.445312 57.078125 31.261719 57.140625 31.074219 C 57.09375 31.222656 57.179688 31.011719 57.195312 30.972656 C 57.257812 30.855469 57.316406 30.738281 57.375 30.621094 C 57.550781 30.277344 57.714844 29.933594 57.878906 29.585938 C 58.121094 29.070312 58.375 28.558594 58.617188 28.046875 C 58.632812 28.332031 58.648438 28.617188 58.664062 28.902344 C 58.648438 28.925781 58.636719 28.953125 58.625 28.976562 C 58.394531 29.40625 58.15625 29.824219 57.902344 30.242188 C 57.800781 30.410156 57.6875 30.570312 57.613281 30.753906 C 57.5 31.023438 57.386719 31.296875 57.277344 31.566406 C 57.253906 31.621094 57.230469 31.671875 57.210938 31.722656 C 57.210938 31.722656 57.210938 31.722656 57.210938 31.726562 C 57.191406 31.773438 57.179688 31.777344 57.1875 31.757812 C 57.148438 31.820312 57.121094 31.898438 57.085938 31.957031 C 56.953125 32.210938 56.816406 32.464844 56.683594 32.722656 C 56.484375 33.097656 56.269531 33.472656 56.105469 33.859375 C 56 34.101562 55.902344 34.34375 55.796875 34.585938 C 55.757812 34.683594 55.714844 34.78125 55.675781 34.878906 C 55.671875 34.882812 55.671875 34.882812 55.671875 34.882812 C 55.640625 34.910156 55.621094 34.96875 55.597656 35.003906 C 55.351562 35.410156 55.105469 35.808594 54.886719 36.230469 C 54.664062 36.660156 54.441406 37.089844 54.21875 37.519531 C 54.003906 37.941406 53.761719 38.339844 53.511719 38.742188 C 53.5 38.757812 53.488281 38.777344 53.476562 38.792969 C 53.15625 38.78125 52.832031 38.769531 52.507812 38.761719 C 52.136719 38.757812 51.761719 38.78125 51.390625 38.761719 C 51.023438 38.742188 50.65625 38.679688 50.289062 38.644531 C 49.921875 38.613281 49.550781 38.597656 49.183594 38.566406 C 47.714844 38.441406 46.257812 38.183594 44.785156 38.128906 C 44.777344 38.128906 44.773438 38.128906 44.765625 38.128906 C 44.78125 38.128906 44.769531 38.121094 44.71875 38.125 C 44.722656 38.125 44.726562 38.125 44.730469 38.125 C 44.722656 38.125 44.714844 38.125 44.707031 38.125 C 44.710938 38.125 44.714844 38.125 44.71875 38.125 C 44.601562 38.101562 44.480469 38.082031 44.359375 38.058594 C 44.257812 38.039062 44.152344 38.019531 44.050781 37.996094 C 43.875 37.824219 43.703125 37.648438 43.527344 37.476562 C 43.605469 37.484375 43.683594 37.488281 43.761719 37.492188 Z M 46.4375 40.785156 C 46.066406 40.496094 45.632812 40.292969 45.253906 40.011719 C 44.988281 39.816406 44.730469 39.613281 44.46875 39.414062 C 44.457031 39.40625 44.449219 39.398438 44.4375 39.386719 C 44.425781 39.378906 44.390625 39.347656 44.378906 39.332031 C 44.253906 39.21875 44.128906 39.105469 44.003906 38.992188 C 43.792969 38.796875 43.578125 38.621094 43.355469 38.449219 C 43.421875 38.453125 43.515625 38.476562 43.582031 38.46875 C 43.605469 38.472656 43.632812 38.476562 43.65625 38.480469 C 43.699219 38.488281 43.742188 38.496094 43.785156 38.503906 C 43.832031 38.550781 43.878906 38.597656 43.925781 38.644531 C 44.3125 39.050781 44.761719 39.386719 45.222656 39.707031 C 46.191406 40.378906 47.207031 40.988281 48.171875 41.667969 C 48.679688 42.027344 49.191406 42.363281 49.71875 42.6875 C 49.566406 42.964844 49.421875 43.25 49.242188 43.503906 C 49.078125 43.742188 48.914062 43.980469 48.75 44.21875 C 48.859375 43.890625 48.917969 43.535156 49 43.203125 C 49.023438 43.109375 49 43.003906 48.929688 42.9375 C 48.121094 42.183594 47.304688 41.46875 46.4375 40.785156 Z M 43.933594 53.429688 C 43.976562 53.34375 44.019531 53.257812 44.058594 53.167969 C 44.167969 52.910156 44.277344 52.652344 44.382812 52.394531 C 44.40625 52.34375 44.425781 52.292969 44.449219 52.242188 C 44.453125 52.226562 44.472656 52.199219 44.476562 52.1875 C 44.480469 52.183594 44.484375 52.179688 44.488281 52.175781 C 44.523438 52.121094 44.554688 52.066406 44.585938 52.011719 C 45.011719 51.308594 45.414062 50.59375 45.820312 49.878906 C 45.671875 50.226562 45.53125 50.566406 45.40625 50.921875 C 45.355469 51.058594 45.308594 51.191406 45.261719 51.328125 C 45.246094 51.363281 45.234375 51.402344 45.222656 51.441406 C 45.21875 51.449219 45.214844 51.457031 45.210938 51.460938 C 45.214844 51.453125 45.21875 51.449219 45.226562 51.4375 C 45.222656 51.445312 45.214844 51.457031 45.210938 51.464844 C 45.203125 51.484375 45.199219 51.488281 45.203125 51.480469 C 45.109375 51.664062 45.023438 51.859375 44.933594 52.046875 C 44.757812 52.417969 44.585938 52.789062 44.414062 53.164062 C 44.253906 53.253906 44.09375 53.34375 43.933594 53.429688 Z M 50.214844 50.148438 C 50.210938 50.152344 50.207031 50.15625 50.203125 50.15625 C 50.21875 50.140625 50.269531 50.113281 50.214844 50.148438 Z M 52.378906 48.101562 C 51.71875 48.722656 51.039062 49.316406 50.398438 49.960938 C 50.339844 50.019531 50.246094 50.085938 50.199219 50.160156 C 50.164062 50.183594 50.125 50.210938 50.089844 50.238281 C 49.859375 50.398438 49.628906 50.558594 49.402344 50.722656 C 49.253906 50.828125 49.113281 50.953125 48.972656 51.070312 C 48.855469 51.167969 48.738281 51.265625 48.621094 51.367188 C 48.582031 51.398438 48.539062 51.433594 48.5 51.464844 C 48.460938 51.496094 48.4375 51.519531 48.476562 51.488281 C 48.175781 51.730469 47.871094 51.976562 47.550781 52.191406 C 47.1875 52.4375 46.824219 52.671875 46.476562 52.9375 C 46.273438 53.09375 46.074219 53.265625 45.863281 53.410156 C 45.695312 53.523438 45.511719 53.613281 45.339844 53.710938 C 45.09375 53.851562 44.84375 53.972656 44.589844 54.089844 C 44.667969 53.921875 44.742188 53.753906 44.820312 53.585938 C 45.074219 53.441406 45.320312 53.285156 45.554688 53.117188 C 46.316406 52.554688 47.070312 51.988281 47.816406 51.40625 C 47.890625 51.34375 47.96875 51.285156 48.046875 51.226562 C 48.046875 51.222656 48.046875 51.222656 48.046875 51.222656 C 48.085938 51.195312 48.125 51.164062 48.167969 51.132812 C 48.394531 50.964844 48.625 50.792969 48.855469 50.621094 C 49.003906 50.507812 49.140625 50.386719 49.285156 50.269531 C 49.402344 50.167969 49.523438 50.070312 49.644531 49.96875 C 49.6875 49.933594 49.730469 49.898438 49.773438 49.863281 C 49.777344 49.855469 49.785156 49.851562 49.792969 49.847656 C 49.789062 49.847656 49.785156 49.851562 49.777344 49.851562 C 49.785156 49.847656 49.792969 49.84375 49.796875 49.84375 C 49.816406 49.828125 49.828125 49.824219 49.828125 49.824219 C 50.015625 49.726562 50.195312 49.578125 50.375 49.460938 C 50.527344 49.359375 50.683594 49.265625 50.824219 49.148438 C 51.050781 48.964844 51.269531 48.777344 51.492188 48.59375 C 51.53125 48.5625 51.566406 48.535156 51.601562 48.503906 C 51.605469 48.5 51.605469 48.5 51.609375 48.5 C 51.683594 48.445312 51.757812 48.386719 51.832031 48.332031 C 52.175781 48.078125 52.515625 47.84375 52.878906 47.621094 C 52.714844 47.785156 52.550781 47.945312 52.378906 48.101562 Z M 60.207031 49.160156 C 60.207031 49.164062 60.207031 49.171875 60.207031 49.179688 C 60.203125 49.164062 60.195312 49.078125 60.207031 49.160156 Z M 60.1875 49.089844 C 60.191406 49.109375 60.195312 49.160156 60.207031 49.179688 C 60.238281 49.449219 60.269531 49.714844 60.300781 49.980469 C 60.351562 50.394531 60.386719 50.8125 60.433594 51.230469 C 60.480469 51.628906 60.585938 52.019531 60.652344 52.410156 C 60.71875 52.800781 60.761719 53.191406 60.832031 53.582031 C 60.882812 53.859375 60.933594 54.140625 60.984375 54.421875 C 60.988281 54.449219 60.992188 54.476562 61 54.503906 C 60.996094 54.609375 61.011719 54.722656 61.019531 54.824219 C 61.050781 55.367188 61.105469 55.890625 61.179688 56.425781 C 61.1875 56.492188 61.195312 56.558594 61.207031 56.625 C 61.207031 56.628906 61.207031 56.628906 61.207031 56.632812 C 61.210938 56.675781 61.203125 56.695312 61.199219 56.6875 C 61.195312 56.75 61.207031 56.820312 61.210938 56.882812 C 61.136719 56.789062 61.066406 56.691406 60.988281 56.597656 C 60.832031 56.410156 60.671875 56.21875 60.511719 56.03125 C 60.484375 55.78125 60.460938 55.53125 60.449219 55.28125 C 60.414062 54.4375 60.339844 53.589844 60.34375 52.746094 C 60.34375 52.316406 60.347656 51.894531 60.3125 51.46875 C 60.277344 51.035156 60.246094 50.605469 60.230469 50.171875 C 60.214844 49.800781 60.199219 49.433594 60.183594 49.066406 C 60.183594 49.074219 60.183594 49.082031 60.1875 49.089844 Z M 59.785156 56.714844 C 59.773438 56.699219 59.761719 56.6875 59.75 56.675781 C 59.761719 56.691406 59.757812 56.691406 59.746094 56.667969 C 59.738281 56.660156 59.730469 56.652344 59.722656 56.644531 C 59.730469 56.652344 59.738281 56.660156 59.742188 56.667969 C 59.742188 56.664062 59.738281 56.660156 59.734375 56.65625 C 59.527344 56.300781 59.285156 55.960938 59.054688 55.617188 C 58.824219 55.277344 58.554688 54.945312 58.390625 54.5625 C 58.222656 54.171875 58.074219 53.78125 57.847656 53.421875 C 57.609375 53.042969 57.386719 52.65625 57.175781 52.265625 C 57.425781 52.640625 57.671875 53.015625 57.9375 53.382812 C 58.441406 54.085938 58.976562 54.765625 59.457031 55.488281 C 59.59375 55.695312 59.722656 55.910156 59.867188 56.109375 C 59.902344 56.160156 59.941406 56.207031 59.980469 56.253906 C 59.984375 56.300781 59.984375 56.347656 59.988281 56.398438 C 60.003906 56.585938 60.007812 56.78125 60.011719 56.972656 C 59.933594 56.886719 59.859375 56.800781 59.785156 56.714844 Z M 63.253906 43.875 C 63.394531 43.839844 63.535156 43.804688 63.683594 43.773438 C 63.714844 43.765625 63.746094 43.757812 63.777344 43.753906 C 63.605469 43.796875 63.429688 43.835938 63.253906 43.875 Z M 70.207031 42.007812 C 70 42.097656 69.796875 42.191406 69.589844 42.285156 C 69.488281 42.328125 69.382812 42.375 69.28125 42.421875 C 69.277344 42.421875 69.269531 42.425781 69.265625 42.429688 C 69.25 42.429688 69.230469 42.4375 69.21875 42.4375 C 68.84375 42.503906 68.449219 42.59375 68.085938 42.71875 C 67.835938 42.800781 67.582031 42.886719 67.332031 42.972656 C 67.300781 42.980469 67.160156 43.023438 67.175781 43.027344 C 67.117188 43.035156 67.054688 43.039062 66.996094 43.046875 C 66.574219 43.09375 66.164062 43.128906 65.753906 43.226562 C 65.355469 43.324219 64.960938 43.421875 64.566406 43.539062 C 64.476562 43.566406 64.390625 43.589844 64.304688 43.613281 C 64.398438 43.574219 64.492188 43.53125 64.585938 43.492188 C 64.886719 43.371094 65.1875 43.246094 65.492188 43.128906 C 65.796875 43.011719 66.101562 42.882812 66.414062 42.78125 C 66.773438 42.664062 67.148438 42.570312 67.492188 42.421875 C 67.683594 42.339844 67.875 42.257812 68.070312 42.171875 C 68.183594 42.125 68.296875 42.074219 68.410156 42.023438 C 68.4375 42.011719 68.464844 42.003906 68.488281 41.992188 C 68.824219 41.90625 69.15625 41.765625 69.484375 41.640625 C 69.730469 41.738281 69.96875 41.847656 70.21875 41.921875 C 70.261719 41.9375 70.300781 41.945312 70.34375 41.957031 C 70.300781 41.972656 70.253906 41.988281 70.207031 42.007812 Z M 70.207031 42.007812 " fill-opacity="1" fill-rule="nonzero"/></g><g clip-path="url(#3f0420533d)"><path fill="#ffffff" d="M 38.136719 42.554688 C 37.375 42.511719 36.617188 42.445312 35.859375 42.371094 C 35.113281 42.300781 34.359375 42.21875 33.609375 42.195312 C 33.238281 42.179688 32.855469 42.234375 32.484375 42.253906 C 32.113281 42.269531 31.738281 42.265625 31.367188 42.273438 C 30.621094 42.28125 29.878906 42.28125 29.136719 42.304688 C 28.386719 42.332031 27.636719 42.363281 26.882812 42.398438 C 26.707031 42.082031 26.527344 41.769531 26.34375 41.457031 C 26.101562 41.046875 25.890625 40.628906 25.574219 40.273438 C 25.390625 40.0625 25.21875 39.828125 25.015625 39.640625 C 24.996094 39.609375 24.972656 39.578125 24.953125 39.550781 C 24.863281 39.417969 24.777344 39.289062 24.6875 39.160156 C 24.40625 38.75 24.105469 38.386719 23.78125 38.011719 C 23.210938 37.351562 22.671875 36.664062 22.09375 36.011719 C 21.8125 35.699219 21.511719 35.402344 21.230469 35.089844 C 20.917969 34.738281 20.613281 34.386719 20.285156 34.054688 C 20.011719 33.78125 19.742188 33.503906 19.480469 33.222656 C 19.125 32.804688 18.769531 32.390625 18.429688 31.964844 C 18.421875 31.953125 18.410156 31.9375 18.398438 31.925781 C 18.355469 31.863281 18.308594 31.800781 18.261719 31.742188 C 18.242188 31.714844 18.21875 31.695312 18.195312 31.675781 C 18.136719 31.621094 18.0625 31.601562 17.988281 31.617188 C 17.855469 31.625 17.738281 31.710938 17.75 31.878906 C 17.75 31.882812 17.75 31.886719 17.75 31.890625 C 17.746094 32.328125 17.722656 32.769531 17.761719 33.207031 C 17.777344 33.402344 17.800781 33.601562 17.816406 33.800781 C 17.820312 34.203125 17.816406 34.605469 17.804688 35.011719 C 17.800781 35.078125 17.800781 35.144531 17.800781 35.210938 C 17.785156 35.726562 17.785156 36.246094 17.78125 36.765625 C 17.75 37.015625 17.707031 37.261719 17.699219 37.511719 C 17.683594 37.945312 17.699219 38.378906 17.699219 38.8125 C 17.675781 39.097656 17.652344 39.386719 17.625 39.671875 C 17.585938 40.109375 17.46875 40.550781 17.492188 40.988281 C 17.507812 41.308594 17.539062 41.636719 17.535156 41.960938 C 17.535156 42.054688 17.527344 42.148438 17.515625 42.246094 C 17.476562 42.503906 17.425781 42.765625 17.417969 43.023438 C 17.378906 43.421875 17.363281 43.816406 17.335938 44.214844 C 17.320312 44.480469 17.300781 44.746094 17.285156 45.011719 C 17.277344 45.097656 17.261719 45.199219 17.261719 45.289062 C 17.261719 45.28125 17.265625 45.300781 17.261719 45.339844 C 17.261719 45.339844 17.261719 45.34375 17.261719 45.34375 C 17.261719 45.34375 17.261719 45.34375 17.261719 45.339844 C 17.261719 45.34375 17.261719 45.347656 17.261719 45.351562 C 17.25 45.425781 17.238281 45.5 17.226562 45.574219 C 17.195312 45.789062 17.171875 46.003906 17.144531 46.214844 C 16.351562 46.453125 15.558594 46.695312 14.753906 46.894531 C 14.261719 47.015625 13.792969 47.148438 13.316406 47.3125 C 13.136719 47.375 12.957031 47.453125 12.773438 47.496094 C 12.488281 47.5625 12.203125 47.613281 11.917969 47.671875 C 11.46875 47.761719 11.046875 47.941406 10.617188 48.09375 C 10.226562 48.230469 9.824219 48.335938 9.429688 48.457031 C 9.011719 48.585938 8.597656 48.730469 8.175781 48.84375 C 7.707031 48.96875 7.25 49.074219 6.808594 49.273438 C 6.558594 49.386719 6.292969 49.484375 6.050781 49.613281 C 6.011719 49.628906 5.976562 49.644531 5.9375 49.660156 C 5.785156 49.722656 5.636719 49.785156 5.484375 49.84375 C 5.027344 50.03125 4.578125 50.234375 4.128906 50.4375 C 4.054688 50.472656 3.976562 50.507812 3.902344 50.542969 C 3.722656 50.625 3.722656 50.933594 3.902344 51.015625 C 4.226562 51.160156 4.546875 51.316406 4.875 51.457031 C 4.5625 51.585938 4.25 51.71875 3.941406 51.863281 C 3.863281 51.902344 3.78125 51.9375 3.703125 51.976562 C 3.507812 52.066406 3.539062 52.351562 3.703125 52.449219 C 3.882812 52.554688 4.0625 52.664062 4.246094 52.773438 C 4.402344 52.867188 4.5625 52.984375 4.734375 53.050781 C 5.097656 53.1875 5.464844 53.3125 5.835938 53.4375 C 6.59375 53.6875 7.355469 53.902344 8.128906 54.109375 C 8.523438 54.214844 8.910156 54.328125 9.3125 54.402344 C 9.730469 54.480469 10.140625 54.558594 10.554688 54.664062 C 11.351562 54.871094 12.128906 55.136719 12.9375 55.320312 C 13.757812 55.507812 14.574219 55.714844 15.390625 55.910156 C 15.539062 56.046875 15.726562 55.972656 15.808594 55.835938 C 15.808594 55.835938 15.808594 55.832031 15.8125 55.832031 C 15.8125 55.824219 15.820312 55.820312 15.820312 55.8125 C 15.902344 55.671875 15.871094 55.46875 15.671875 55.417969 C 15.550781 55.292969 15.429688 55.171875 15.308594 55.050781 C 15.183594 54.925781 15.058594 54.753906 14.90625 54.667969 C 14.683594 54.542969 14.433594 54.457031 14.203125 54.355469 C 14.050781 54.289062 13.898438 54.21875 13.742188 54.160156 C 13.363281 54.011719 12.976562 53.878906 12.601562 53.722656 C 12.222656 53.5625 11.847656 53.378906 11.453125 53.269531 C 11.046875 53.160156 10.640625 53.0625 10.25 52.910156 C 9.859375 52.753906 9.464844 52.601562 9.074219 52.449219 C 8.671875 52.296875 8.285156 52.160156 7.871094 52.046875 C 7.742188 52.015625 7.609375 51.980469 7.480469 51.945312 C 7.429688 51.929688 7.378906 51.914062 7.328125 51.902344 C 7.308594 51.898438 7.257812 51.882812 7.253906 51.882812 C 7.070312 51.804688 6.886719 51.71875 6.707031 51.636719 C 6.578125 51.578125 6.445312 51.523438 6.316406 51.46875 C 6.386719 51.441406 6.460938 51.414062 6.53125 51.382812 C 6.980469 51.203125 7.429688 51.023438 7.882812 50.84375 C 8.25 50.695312 8.636719 50.53125 9.023438 50.433594 C 9.304688 50.367188 9.59375 50.3125 9.875 50.25 C 10.0625 50.210938 10.222656 50.140625 10.398438 50.066406 C 10.625 49.96875 10.847656 49.863281 11.074219 49.777344 C 11.074219 49.777344 11.089844 49.773438 11.121094 49.769531 C 11.183594 49.753906 11.242188 49.734375 11.304688 49.71875 C 11.464844 49.675781 11.628906 49.628906 11.792969 49.585938 C 12.632812 49.359375 13.433594 48.988281 14.285156 48.800781 C 14.574219 48.738281 14.867188 48.671875 15.160156 48.609375 C 15.335938 48.570312 15.5 48.492188 15.667969 48.425781 C 15.878906 48.339844 16.085938 48.242188 16.300781 48.171875 C 16.566406 48.082031 16.84375 48.019531 17.113281 47.941406 C 17.195312 47.917969 17.28125 47.894531 17.363281 47.871094 C 17.488281 47.835938 17.558594 47.726562 17.566406 47.605469 C 17.585938 47.324219 17.605469 47.039062 17.625 46.753906 C 17.628906 46.691406 17.636719 46.625 17.640625 46.558594 C 17.660156 46.519531 17.679688 46.472656 17.683594 46.421875 C 17.71875 46.164062 17.75 45.910156 17.785156 45.652344 C 17.800781 45.542969 17.816406 45.429688 17.828125 45.316406 C 17.835938 45.265625 17.84375 45.21875 17.847656 45.167969 C 17.890625 44.875 17.929688 44.582031 17.96875 44.292969 C 18 44.074219 17.976562 43.847656 17.972656 43.625 C 17.96875 43.421875 17.949219 43.214844 17.96875 43.015625 C 17.996094 42.710938 18.042969 42.410156 18.078125 42.105469 C 18.132812 41.683594 18.125 41.257812 18.152344 40.832031 C 18.179688 40.378906 18.238281 39.929688 18.242188 39.476562 C 18.246094 39.292969 18.246094 39.105469 18.246094 38.921875 C 18.253906 38.792969 18.265625 38.664062 18.273438 38.535156 C 18.304688 37.953125 18.316406 37.371094 18.324219 36.789062 C 18.335938 36.667969 18.347656 36.550781 18.355469 36.433594 C 18.382812 36.125 18.351562 35.8125 18.339844 35.5 C 18.34375 35.429688 18.34375 35.355469 18.34375 35.28125 C 18.355469 34.8125 18.386719 34.347656 18.378906 33.878906 C 18.375 33.507812 18.363281 33.144531 18.347656 32.777344 C 18.421875 32.875 18.5 32.96875 18.582031 33.058594 C 18.785156 33.289062 18.992188 33.511719 19.203125 33.730469 C 19.34375 33.894531 19.484375 34.058594 19.621094 34.230469 C 19.714844 34.347656 19.8125 34.464844 19.90625 34.582031 C 19.914062 34.589844 19.925781 34.609375 19.9375 34.621094 C 19.949219 34.636719 19.960938 34.65625 19.964844 34.660156 C 20.132812 34.910156 20.304688 35.15625 20.476562 35.402344 C 20.707031 35.742188 20.972656 36.054688 21.210938 36.390625 C 21.480469 36.769531 21.734375 37.160156 22.015625 37.53125 C 22.328125 37.933594 22.617188 38.335938 22.894531 38.765625 C 23.160156 39.167969 23.394531 39.585938 23.652344 39.992188 C 23.867188 40.332031 24.175781 40.625 24.351562 40.984375 C 24.488281 41.25 24.613281 41.523438 24.742188 41.792969 C 24.828125 41.972656 24.960938 42.117188 25.085938 42.273438 C 25.191406 42.40625 25.292969 42.535156 25.398438 42.667969 C 25.433594 42.710938 25.46875 42.753906 25.503906 42.796875 C 25.5625 42.871094 25.503906 42.820312 25.5 42.796875 C 25.507812 42.886719 25.609375 43.015625 25.652344 43.097656 C 25.726562 43.25 25.800781 43.398438 25.875 43.546875 C 25.898438 43.59375 25.921875 43.640625 25.945312 43.683594 C 25.957031 43.753906 25.992188 43.816406 26.050781 43.855469 C 26.117188 43.917969 26.203125 43.929688 26.285156 43.902344 C 26.640625 43.90625 26.996094 43.90625 27.355469 43.90625 C 27.734375 43.910156 28.121094 43.9375 28.5 43.914062 C 28.886719 43.890625 29.277344 43.808594 29.660156 43.757812 C 29.675781 43.769531 29.722656 43.761719 29.738281 43.765625 C 29.859375 43.773438 29.976562 43.78125 30.097656 43.789062 C 30.324219 43.808594 30.550781 43.828125 30.78125 43.839844 C 31.53125 43.878906 32.289062 43.835938 33.042969 43.828125 C 33.414062 43.824219 33.792969 43.871094 34.160156 43.898438 C 34.1875 43.898438 34.226562 43.910156 34.25 43.902344 C 34.328125 43.914062 34.40625 43.925781 34.480469 43.933594 C 34.730469 43.96875 34.980469 44.003906 35.230469 44.039062 C 35.589844 44.085938 35.957031 44.054688 36.316406 44.046875 C 36.277344 44.082031 36.234375 44.117188 36.195312 44.152344 C 35.636719 44.640625 35.121094 45.195312 34.59375 45.722656 C 34.335938 45.980469 34.09375 46.261719 33.84375 46.53125 C 33.597656 46.800781 33.320312 47.046875 33.058594 47.300781 C 32.535156 47.800781 32.023438 48.316406 31.511719 48.835938 C 31.066406 49.289062 30.652344 49.765625 30.25 50.257812 C 30.09375 50.433594 29.945312 50.613281 29.796875 50.785156 C 29.660156 50.945312 29.699219 51.089844 29.746094 51.261719 C 29.773438 51.386719 29.8125 51.511719 29.835938 51.625 C 29.867188 51.789062 29.890625 51.964844 29.9375 52.125 C 29.980469 52.265625 30.039062 52.402344 30.101562 52.535156 C 30.167969 52.746094 30.238281 52.957031 30.308594 53.164062 C 30.425781 53.542969 30.648438 53.886719 30.828125 54.234375 C 30.851562 54.277344 30.871094 54.324219 30.894531 54.367188 C 30.886719 54.347656 30.894531 54.347656 30.90625 54.382812 C 30.90625 54.386719 30.90625 54.386719 30.90625 54.386719 C 30.910156 54.394531 30.914062 54.402344 30.917969 54.410156 C 30.914062 54.402344 30.910156 54.398438 30.90625 54.390625 C 30.917969 54.429688 30.933594 54.46875 30.949219 54.507812 C 31.03125 54.75 31.117188 54.996094 31.203125 55.238281 C 31.335938 55.609375 31.503906 55.964844 31.664062 56.324219 C 31.816406 56.660156 31.960938 57 32.105469 57.335938 C 32.144531 57.429688 32.1875 57.523438 32.226562 57.617188 C 32.226562 57.621094 32.230469 57.628906 32.234375 57.632812 C 32.238281 57.648438 32.246094 57.667969 32.246094 57.671875 C 32.332031 57.902344 32.417969 58.132812 32.507812 58.363281 C 32.6875 58.84375 32.886719 59.320312 33.097656 59.789062 C 32.910156 59.632812 32.71875 59.480469 32.523438 59.332031 C 32.167969 59.0625 31.816406 58.796875 31.441406 58.550781 C 31.320312 58.46875 31.195312 58.390625 31.074219 58.308594 C 31.035156 58.285156 30.996094 58.257812 30.957031 58.230469 C 30.953125 58.230469 30.953125 58.230469 30.949219 58.226562 C 30.773438 58.0625 30.566406 57.917969 30.378906 57.761719 C 29.71875 57.222656 28.945312 56.839844 28.234375 56.367188 C 27.917969 56.15625 27.617188 55.917969 27.296875 55.703125 C 26.945312 55.464844 26.589844 55.234375 26.238281 54.996094 C 25.804688 54.699219 25.371094 54.417969 24.914062 54.152344 C 24.820312 54.097656 24.714844 54.015625 24.613281 53.980469 C 24.667969 53.996094 24.675781 54.027344 24.613281 53.980469 C 24.5625 53.941406 24.515625 53.902344 24.464844 53.863281 C 24.253906 53.695312 24.042969 53.527344 23.832031 53.359375 C 23.695312 53.253906 23.496094 53.25 23.398438 53.414062 C 22.875 54.316406 22.324219 55.199219 21.78125 56.085938 C 21.550781 56.457031 21.425781 56.882812 21.203125 57.257812 C 21.042969 57.53125 20.871094 57.796875 20.703125 58.066406 C 20.589844 58.25 20.515625 58.457031 20.429688 58.65625 C 20.21875 59.144531 19.992188 59.625 19.753906 60.101562 C 19.558594 60.492188 19.285156 60.839844 19.089844 61.234375 C 18.84375 61.734375 18.59375 62.226562 18.328125 62.714844 C 18.230469 62.894531 18.136719 63.070312 18.050781 63.253906 C 17.976562 63.417969 17.90625 63.578125 17.832031 63.742188 C 17.800781 63.804688 17.679688 63.980469 17.6875 64.054688 C 17.6875 64.023438 17.746094 63.980469 17.6875 64.054688 C 17.6875 64.054688 17.6875 64.058594 17.683594 64.0625 C 17.636719 64.117188 17.59375 64.175781 17.550781 64.230469 C 17.4375 64.375 17.328125 64.515625 17.214844 64.660156 C 17.148438 64.746094 17.058594 64.835938 17.003906 64.933594 C 16.949219 65.023438 16.917969 65.140625 16.878906 65.238281 C 16.816406 65.40625 16.75 65.574219 16.683594 65.742188 C 16.667969 65.777344 16.65625 65.816406 16.640625 65.851562 C 16.570312 65.96875 16.496094 66.085938 16.421875 66.199219 C 16.417969 66.148438 16.417969 66.09375 16.414062 66.042969 C 16.394531 65.769531 16.410156 65.496094 16.417969 65.21875 C 16.429688 64.863281 16.410156 64.507812 16.394531 64.15625 C 16.414062 63.9375 16.441406 63.71875 16.429688 63.507812 C 16.421875 63.320312 16.402344 63.136719 16.378906 62.953125 C 16.382812 62.773438 16.386719 62.59375 16.386719 62.417969 C 16.382812 62.207031 16.363281 61.992188 16.339844 61.78125 C 16.347656 61.6875 16.355469 61.597656 16.359375 61.503906 C 16.378906 61.125 16.3125 60.753906 16.265625 60.378906 C 16.265625 60.214844 16.265625 60.046875 16.265625 59.878906 C 16.265625 59.535156 16.289062 59.179688 16.261719 58.835938 C 16.238281 58.585938 16.210938 58.335938 16.179688 58.085938 C 16.179688 57.960938 16.175781 57.835938 16.171875 57.710938 C 16.171875 57.550781 16.054688 57.464844 15.929688 57.453125 C 15.90625 57.445312 15.886719 57.441406 15.863281 57.441406 C 15.726562 57.441406 15.570312 57.570312 15.585938 57.714844 C 15.601562 57.847656 15.617188 57.976562 15.632812 58.109375 C 15.640625 58.605469 15.648438 59.101562 15.664062 59.59375 C 15.671875 59.835938 15.6875 60.066406 15.714844 60.300781 C 15.714844 60.621094 15.71875 60.945312 15.742188 61.261719 C 15.753906 61.4375 15.773438 61.613281 15.792969 61.785156 C 15.777344 61.972656 15.765625 62.164062 15.765625 62.351562 C 15.769531 62.578125 15.800781 62.8125 15.832031 63.042969 C 15.828125 63.128906 15.824219 63.210938 15.824219 63.296875 C 15.820312 63.546875 15.835938 63.796875 15.851562 64.046875 C 15.828125 64.335938 15.792969 64.625 15.804688 64.917969 C 15.835938 65.640625 15.878906 66.355469 15.929688 67.078125 C 15.949219 67.347656 16.289062 67.449219 16.441406 67.214844 C 16.660156 66.875 16.902344 66.550781 17.082031 66.1875 C 17.367188 65.734375 17.652344 65.273438 17.929688 64.8125 C 18.402344 64.019531 18.925781 63.246094 19.46875 62.496094 C 19.738281 62.125 20.035156 61.773438 20.273438 61.382812 C 20.542969 60.929688 20.816406 60.5 21.117188 60.070312 C 21.394531 59.675781 21.671875 59.273438 21.90625 58.851562 C 21.910156 58.84375 21.914062 58.839844 21.914062 58.835938 C 21.933594 58.8125 21.953125 58.789062 21.972656 58.765625 C 22.070312 58.640625 22.167969 58.515625 22.269531 58.394531 C 22.398438 58.230469 22.554688 58.070312 22.652344 57.886719 C 22.890625 57.445312 23.09375 57.007812 23.375 56.589844 C 23.65625 56.171875 23.90625 55.75 24.148438 55.308594 C 24.382812 55.5 24.617188 55.691406 24.863281 55.859375 C 25.214844 56.105469 25.578125 56.34375 25.9375 56.574219 C 26.324219 56.824219 26.710938 57.074219 27.09375 57.332031 C 27.21875 57.417969 27.34375 57.5 27.46875 57.585938 C 27.507812 57.613281 27.546875 57.644531 27.589844 57.667969 C 27.59375 57.671875 27.597656 57.671875 27.597656 57.675781 C 27.792969 57.835938 27.996094 57.984375 28.195312 58.140625 C 28.554688 58.425781 28.921875 58.707031 29.289062 58.988281 C 29.417969 59.089844 29.566406 59.167969 29.710938 59.253906 C 29.84375 59.332031 29.980469 59.414062 30.113281 59.492188 C 30.167969 59.527344 30.234375 59.578125 30.300781 59.609375 C 30.28125 59.597656 30.292969 59.59375 30.328125 59.621094 C 30.332031 59.625 30.335938 59.625 30.335938 59.625 C 30.332031 59.625 30.332031 59.625 30.332031 59.621094 C 30.332031 59.625 30.332031 59.625 30.335938 59.625 C 30.382812 59.664062 30.425781 59.699219 30.472656 59.738281 C 30.59375 59.835938 30.714844 59.933594 30.835938 60.03125 C 30.980469 60.144531 31.121094 60.265625 31.269531 60.371094 C 31.503906 60.539062 31.734375 60.703125 31.964844 60.867188 C 32.003906 60.894531 32.042969 60.921875 32.078125 60.949219 C 32.089844 60.953125 32.09375 60.960938 32.097656 60.960938 C 32.171875 61.019531 32.246094 61.074219 32.320312 61.132812 C 32.691406 61.417969 33.054688 61.707031 33.410156 62.011719 C 33.765625 62.3125 34.089844 62.632812 34.417969 62.964844 C 34.472656 63.019531 34.523438 63.074219 34.578125 63.128906 C 34.757812 63.308594 35.148438 63.125 35.039062 62.859375 C 34.828125 62.363281 34.628906 61.855469 34.417969 61.355469 C 34.480469 61.296875 34.515625 61.207031 34.472656 61.105469 C 34.1875 60.398438 33.898438 59.699219 33.578125 59.007812 C 33.578125 59.007812 33.578125 59.007812 33.578125 59.003906 C 33.574219 59 33.574219 58.992188 33.570312 58.980469 C 33.535156 58.878906 33.496094 58.777344 33.457031 58.675781 C 33.378906 58.464844 33.304688 58.25 33.222656 58.039062 C 33.085938 57.683594 32.914062 57.34375 32.761719 57 C 32.613281 56.671875 32.4375 56.355469 32.273438 56.035156 C 32.109375 55.714844 31.972656 55.382812 31.824219 55.054688 C 31.527344 54.402344 31.246094 53.746094 30.929688 53.101562 C 30.910156 53.058594 30.824219 52.859375 30.878906 53.003906 C 30.847656 52.929688 30.820312 52.855469 30.789062 52.78125 C 30.746094 52.667969 30.699219 52.558594 30.652344 52.449219 C 30.625 52.363281 30.597656 52.28125 30.574219 52.199219 C 30.46875 51.882812 30.386719 51.558594 30.304688 51.234375 C 30.296875 51.183594 30.289062 51.132812 30.28125 51.085938 C 30.359375 50.984375 30.441406 50.882812 30.523438 50.785156 C 30.648438 50.640625 30.773438 50.5 30.90625 50.363281 C 31.144531 50.113281 31.441406 49.90625 31.703125 49.6875 C 32.207031 49.265625 32.679688 48.824219 33.121094 48.34375 C 33.34375 48.101562 33.554688 47.890625 33.808594 47.679688 C 34.0625 47.464844 34.320312 47.257812 34.558594 47.027344 C 35.066406 46.542969 35.578125 46.058594 36.121094 45.613281 C 36.421875 45.367188 36.746094 45.148438 37.042969 44.898438 C 37.339844 44.644531 37.621094 44.363281 37.910156 44.097656 C 38.101562 43.921875 37.933594 43.65625 37.714844 43.632812 C 37.699219 43.628906 37.683594 43.628906 37.671875 43.625 C 37.890625 43.425781 38.109375 43.222656 38.332031 43.023438 C 38.519531 42.855469 38.359375 42.570312 38.136719 42.554688 Z M 7.25 52.449219 C 7.652344 52.554688 8.058594 52.644531 8.445312 52.792969 C 9.230469 53.09375 10.003906 53.441406 10.8125 53.660156 C 11.039062 53.722656 11.269531 53.773438 11.492188 53.847656 C 11.65625 53.902344 11.820312 53.984375 11.980469 54.050781 C 12.375 54.214844 12.765625 54.371094 13.164062 54.523438 C 13.300781 54.574219 13.441406 54.628906 13.578125 54.679688 C 13.601562 54.6875 13.625 54.699219 13.648438 54.707031 C 13.640625 54.703125 13.640625 54.703125 13.632812 54.703125 C 13.640625 54.703125 13.648438 54.707031 13.652344 54.707031 C 13.929688 54.832031 14.207031 54.953125 14.488281 55.078125 C 14.519531 55.089844 14.570312 55.125 14.613281 55.132812 C 14.617188 55.144531 14.625 55.152344 14.632812 55.160156 C 14.234375 55.0625 13.835938 54.964844 13.4375 54.875 C 13.054688 54.785156 12.660156 54.71875 12.28125 54.601562 C 11.898438 54.480469 11.519531 54.351562 11.128906 54.25 C 10.734375 54.148438 10.34375 54.039062 9.941406 53.964844 C 9.535156 53.890625 9.140625 53.816406 8.742188 53.707031 C 7.945312 53.496094 7.148438 53.292969 6.363281 53.035156 C 5.910156 52.886719 5.460938 52.726562 5.011719 52.570312 C 4.976562 52.558594 4.941406 52.542969 4.910156 52.535156 C 4.910156 52.53125 4.910156 52.53125 4.90625 52.53125 C 4.828125 52.457031 4.695312 52.40625 4.601562 52.347656 C 4.542969 52.3125 4.480469 52.277344 4.421875 52.242188 C 4.503906 52.203125 4.589844 52.164062 4.671875 52.125 C 4.757812 52.082031 4.847656 52.046875 4.929688 52.003906 C 4.90625 52.015625 4.886719 52.019531 4.929688 52.003906 C 4.9375 52 4.945312 51.996094 4.953125 51.992188 C 4.945312 51.996094 4.9375 52 4.929688 52.003906 C 4.933594 52 4.9375 52 4.941406 52 C 4.996094 51.980469 5.054688 51.957031 5.109375 51.933594 C 5.273438 51.875 5.433594 51.8125 5.59375 51.75 C 5.632812 51.765625 5.671875 51.78125 5.710938 51.800781 C 5.808594 51.839844 5.902344 51.878906 6 51.914062 C 5.996094 51.914062 5.992188 51.914062 5.988281 51.910156 C 5.996094 51.914062 6.003906 51.917969 6.011719 51.921875 C 6.011719 51.921875 6.015625 51.921875 6.015625 51.921875 C 6.058594 51.9375 6.046875 51.9375 6.03125 51.929688 C 6.046875 51.933594 6.0625 51.941406 6.078125 51.949219 C 6.457031 52.121094 6.84375 52.339844 7.25 52.449219 Z M 17.039062 47.308594 C 17.035156 47.335938 17.035156 47.367188 17.03125 47.394531 C 16.675781 47.488281 16.3125 47.578125 15.96875 47.71875 C 15.699219 47.828125 15.429688 47.949219 15.15625 48.046875 C 14.964844 48.113281 14.75 48.140625 14.550781 48.183594 C 14.0625 48.289062 13.59375 48.433594 13.117188 48.578125 C 12.726562 48.699219 12.347656 48.855469 11.957031 48.976562 C 11.5 49.113281 11.039062 49.203125 10.597656 49.390625 C 10.363281 49.492188 10.128906 49.597656 9.890625 49.691406 C 9.882812 49.691406 9.878906 49.695312 9.867188 49.695312 C 9.8125 49.699219 9.753906 49.71875 9.703125 49.730469 C 9.539062 49.765625 9.378906 49.800781 9.21875 49.835938 C 8.363281 50.019531 7.539062 50.390625 6.726562 50.71875 C 6.351562 50.871094 5.972656 51.015625 5.59375 51.167969 C 5.503906 51.128906 5.410156 51.089844 5.320312 51.054688 C 5.273438 51.035156 5.230469 51.015625 5.183594 51 C 5.1875 51 5.1875 51 5.191406 51.003906 C 5.1875 51 5.183594 51 5.179688 50.996094 C 5.152344 50.984375 5.136719 50.976562 5.144531 50.980469 C 5.054688 50.9375 4.96875 50.902344 4.878906 50.859375 C 4.820312 50.832031 4.757812 50.804688 4.699219 50.777344 C 4.746094 50.757812 4.792969 50.734375 4.839844 50.714844 C 4.957031 50.660156 5.074219 50.609375 5.191406 50.554688 C 5.195312 50.550781 5.199219 50.550781 5.203125 50.546875 C 5.226562 50.539062 5.25 50.527344 5.273438 50.519531 C 5.722656 50.335938 6.167969 50.15625 6.609375 49.957031 C 6.851562 49.851562 7.101562 49.75 7.339844 49.632812 C 7.339844 49.632812 7.339844 49.632812 7.34375 49.632812 C 7.390625 49.628906 7.4375 49.605469 7.484375 49.59375 C 7.632812 49.554688 7.777344 49.515625 7.925781 49.476562 C 8.402344 49.351562 8.867188 49.207031 9.335938 49.058594 C 9.773438 48.921875 10.214844 48.792969 10.65625 48.65625 C 11.042969 48.535156 11.417969 48.355469 11.8125 48.25 C 12.226562 48.136719 12.664062 48.121094 13.066406 47.980469 C 13.515625 47.824219 13.957031 47.65625 14.421875 47.542969 C 15.316406 47.316406 16.199219 47.0625 17.082031 46.804688 C 17.066406 46.972656 17.050781 47.136719 17.039062 47.308594 Z M 33.671875 61.035156 C 33.742188 61.1875 33.808594 61.34375 33.875 61.5 C 33.917969 61.605469 33.964844 61.710938 34.007812 61.816406 C 33.710938 61.546875 33.40625 61.28125 33.082031 61.03125 C 32.703125 60.742188 32.324219 60.453125 31.9375 60.175781 C 31.820312 60.09375 31.703125 60.011719 31.585938 59.925781 C 31.558594 59.90625 31.53125 59.886719 31.5 59.867188 C 31.289062 59.691406 31.074219 59.523438 30.859375 59.351562 C 30.503906 59.0625 30.105469 58.855469 29.714844 58.621094 C 29.5625 58.527344 29.429688 58.410156 29.289062 58.304688 C 29.167969 58.210938 29.046875 58.117188 28.925781 58.023438 C 28.890625 57.996094 28.851562 57.964844 28.8125 57.9375 C 28.769531 57.90625 28.777344 57.910156 28.796875 57.921875 C 28.117188 57.367188 27.402344 56.867188 26.664062 56.394531 C 26.273438 56.140625 25.882812 55.886719 25.492188 55.625 C 25.386719 55.554688 25.277344 55.480469 25.167969 55.410156 C 25.167969 55.40625 25.164062 55.40625 25.15625 55.402344 C 25.144531 55.394531 25.117188 55.375 25.109375 55.367188 C 24.882812 55.191406 24.65625 55.011719 24.433594 54.835938 C 24.375 54.792969 24.316406 54.746094 24.261719 54.703125 C 24.128906 54.597656 23.921875 54.589844 23.828125 54.757812 C 23.617188 55.144531 23.421875 55.542969 23.171875 55.910156 C 23.007812 56.15625 22.832031 56.398438 22.671875 56.652344 C 22.5625 56.828125 22.480469 57.023438 22.382812 57.210938 C 22.316406 57.34375 22.242188 57.476562 22.179688 57.609375 C 22.171875 57.632812 22.160156 57.648438 22.15625 57.660156 C 22.148438 57.671875 22.136719 57.683594 22.128906 57.695312 C 21.9375 57.9375 21.746094 58.175781 21.550781 58.417969 C 21.285156 58.75 21.089844 59.144531 20.851562 59.5 C 20.589844 59.886719 20.308594 60.257812 20.066406 60.65625 C 19.984375 60.796875 19.898438 60.941406 19.816406 61.082031 C 19.921875 60.902344 20.027344 60.71875 20.136719 60.535156 C 20.359375 60.171875 20.539062 59.769531 20.710938 59.378906 C 20.839844 59.085938 20.964844 58.792969 21.09375 58.5 C 21.179688 58.296875 21.320312 58.113281 21.433594 57.925781 C 21.546875 57.746094 21.667969 57.570312 21.757812 57.375 C 21.890625 57.09375 22.019531 56.804688 22.160156 56.523438 C 22.359375 56.128906 22.621094 55.761719 22.855469 55.386719 C 23.148438 54.917969 23.433594 54.449219 23.710938 53.96875 C 23.9375 54.160156 24.167969 54.355469 24.417969 54.5 C 24.792969 54.71875 25.171875 54.929688 25.53125 55.175781 C 26.273438 55.679688 27.023438 56.175781 27.753906 56.695312 C 28.105469 56.945312 28.480469 57.160156 28.84375 57.386719 C 28.988281 57.476562 29.132812 57.570312 29.277344 57.660156 C 29.398438 57.738281 29.523438 57.816406 29.644531 57.894531 C 29.683594 57.917969 29.722656 57.945312 29.765625 57.96875 C 29.769531 57.972656 29.769531 57.972656 29.773438 57.972656 C 30.394531 58.566406 31.15625 58.972656 31.835938 59.492188 C 31.972656 59.59375 32.109375 59.699219 32.246094 59.804688 C 32.289062 59.835938 32.332031 59.871094 32.375 59.902344 C 32.574219 60.101562 32.816406 60.265625 33.035156 60.445312 C 33.257812 60.628906 33.464844 60.832031 33.671875 61.035156 Z M 36.65625 44.511719 C 36.566406 44.585938 36.476562 44.65625 36.382812 44.726562 C 36.421875 44.691406 36.457031 44.65625 36.492188 44.621094 C 36.683594 44.4375 36.890625 44.273438 37.097656 44.109375 C 36.953125 44.246094 36.804688 44.382812 36.65625 44.511719 Z M 37.078125 43.421875 C 37.03125 43.460938 36.988281 43.5 36.945312 43.535156 C 36.816406 43.519531 36.6875 43.507812 36.558594 43.5 C 36.386719 43.492188 36.210938 43.503906 36.035156 43.507812 C 35.902344 43.507812 35.769531 43.511719 35.632812 43.511719 C 35.585938 43.511719 35.449219 43.484375 35.40625 43.515625 C 35.382812 43.511719 35.355469 43.507812 35.328125 43.503906 C 35.207031 43.488281 35.082031 43.46875 34.960938 43.453125 C 34.753906 43.425781 34.546875 43.398438 34.335938 43.367188 C 33.941406 43.316406 33.53125 43.296875 33.132812 43.28125 C 32.753906 43.269531 32.375 43.296875 31.996094 43.304688 C 31.621094 43.308594 31.246094 43.300781 30.871094 43.296875 C 30.5 43.292969 30.121094 43.246094 29.75 43.21875 C 29.613281 43.207031 29.484375 43.234375 29.347656 43.253906 C 29.09375 43.289062 28.835938 43.320312 28.578125 43.355469 C 28.550781 43.359375 28.519531 43.363281 28.492188 43.367188 C 28.492188 43.367188 28.492188 43.367188 28.488281 43.367188 C 28.40625 43.339844 28.257812 43.367188 28.175781 43.363281 C 27.914062 43.363281 27.65625 43.363281 27.394531 43.359375 C 27.0625 43.359375 26.726562 43.359375 26.394531 43.359375 C 26.222656 43 26.0625 42.625 25.816406 42.316406 C 25.632812 42.089844 25.453125 41.859375 25.269531 41.632812 C 25.269531 41.632812 25.273438 41.632812 25.273438 41.632812 C 25.273438 41.601562 25.222656 41.53125 25.210938 41.503906 C 25.140625 41.363281 25.074219 41.21875 25.003906 41.074219 C 24.921875 40.902344 24.851562 40.71875 24.738281 40.5625 C 24.5625 40.320312 24.382812 40.078125 24.207031 39.832031 C 23.964844 39.503906 23.78125 39.128906 23.5625 38.785156 C 23.382812 38.503906 23.203125 38.222656 23.011719 37.949219 C 23.074219 38.023438 23.132812 38.097656 23.195312 38.167969 C 23.347656 38.351562 23.503906 38.527344 23.660156 38.710938 C 23.746094 38.808594 23.832031 38.910156 23.917969 39.011719 C 23.921875 39.011719 23.921875 39.011719 23.921875 39.015625 C 23.917969 39.007812 23.914062 39.003906 23.910156 38.996094 C 23.914062 39.003906 23.921875 39.011719 23.925781 39.019531 C 23.945312 39.042969 23.941406 39.039062 23.929688 39.023438 C 23.945312 39.042969 23.957031 39.0625 23.96875 39.082031 C 24.242188 39.476562 24.496094 39.878906 24.816406 40.238281 C 24.988281 40.433594 25.152344 40.664062 25.347656 40.839844 C 25.363281 40.882812 25.398438 40.925781 25.421875 40.964844 C 25.5 41.097656 25.578125 41.230469 25.65625 41.367188 C 25.898438 41.78125 26.136719 42.199219 26.378906 42.617188 C 26.417969 42.683594 26.457031 42.753906 26.496094 42.820312 C 26.558594 42.929688 26.65625 42.964844 26.753906 42.949219 C 28.257812 42.882812 29.757812 42.828125 31.261719 42.820312 C 32.015625 42.816406 32.757812 42.769531 33.511719 42.742188 C 33.878906 42.726562 34.261719 42.785156 34.628906 42.808594 C 35 42.832031 35.371094 42.875 35.742188 42.910156 C 36.324219 42.960938 36.902344 43.015625 37.484375 43.058594 C 37.347656 43.179688 37.214844 43.304688 37.078125 43.421875 Z M 37.078125 43.421875 " fill-opacity="1" fill-rule="nonzero"/></g></svg>